<?xml version="1.0" encoding="iso-8859-1"?>
<!-- Generator: Adobe Illustrator 16.0.0, SVG Export Plug-In . SVG Version: 6.00 Build 0)  -->
<!DOCTYPE svg PUBLIC "-//W3C//DTD SVG 1.1//EN" "http://www.w3.org/Graphics/SVG/1.1/DTD/svg11.dtd">
<svg version="1.1" id="Capa_1" xmlns="http://www.w3.org/2000/svg" xmlns:xlink="http://www.w3.org/1999/xlink" x="0px" y="0px"
	 width="35px" height="35px" fill="#fefef2" viewBox="0 0 348.182 348.183" style="enable-background:new 0 0 348.182 348.183;"
	 xml:space="preserve">
<g>
	<g>
		<path d="M76.604,153.228c0-47.402,38.566-85.98,85.979-85.98c47.417,0,85.973,38.572,85.973,85.98
			c0,7.316-1.002,14.369-2.731,21.151c-4.576-1.99-9.596-3.08-14.82-3.08c-10.46,0-19.876,4.435-26.625,11.457
			c-0.486-0.084-0.955-0.204-1.441-0.276c-1.062-26.643-22.854-47.765-49.503-47.765c-18.11,0-34.521,9.725-43.289,25.481
			c-3.96-0.973-7.974-1.495-11.979-1.495c-7.329,0-14.381,1.708-20.812,4.696C76.931,160.052,76.604,156.683,76.604,153.228z
			 M44.919,279.781C20.155,279.781,0,259.617,0,234.848c0-27.958,25.875-50.2,54.671-43.847l1.678,0.365l0.829-1.501
			c7.933-14.297,22.999-23.185,39.323-23.185c4.17,0,8.376,0.598,12.514,1.796l1.844,0.54l0.867-1.72
			c7.71-15.177,23.059-24.625,40.037-24.625c24.761,0,44.919,20.167,44.919,44.937v2.084l2.072,0.48
			c0.126,0.012,0.258,0.042,0.401,0.06c-4.095,5.734-6.641,12.688-6.941,20.23c-18.194,2.654-31.738,18.194-31.738,36.773
			c0,13.991,7.792,26.205,19.245,32.534H44.919V279.781z M314.483,280.935H202.667c-18.581,0-33.695-15.12-33.695-33.688
			c0-17.312,12.967-31.717,30.153-33.507l1.543-0.36v-1.572c0-18.567,15.114-33.688,33.687-33.688
			c12.742,0,24.248,7.086,30.049,18.471l0.636,1.279l1.394-0.396c3.099-0.895,6.257-1.357,9.379-1.357
			c12.238,0,23.539,6.672,29.472,17.396l0.637,1.141l1.267-0.282c21.6-4.774,40.995,11.907,40.995,32.876
			C348.182,265.814,333.074,280.935,314.483,280.935z"/>
	</g>
</g>
<g>
</g>
<g>
</g>
<g>
</g>
<g>
</g>
<g>
</g>
<g>
</g>
<g>
</g>
<g>
</g>
<g>
</g>
<g>
</g>
<g>
</g>
<g>
</g>
<g>
</g>
<g>
</g>
<g>
</g>
</svg>
